<?xml version="1.0" encoding="UTF-8"?>
<svg id="Calque_1" data-name="Calque 1" xmlns="http://www.w3.org/2000/svg" version="1.1" viewBox="0 0 613.03 297.64">
  <defs>
    <style>
      .cls-1 {
        fill: #1d1d1b;
      }

      .cls-1, .cls-2 {
        stroke-width: 0px;
      }

      .cls-2 {
        fill: #fff;
      }
    </style>
  </defs>
  <rect class="cls-1" y="-1.21" width="613.03" height="297.64"/>
  <g>
    <path class="cls-2" d="M254.28,75.09h13.42c3.14,0,5.97.48,8.48,1.44,2.52.96,4.66,2.32,6.43,4.07,1.77,1.76,3.13,3.85,4.07,6.29s1.41,5.12,1.41,8.04-.47,5.66-1.41,8.1-2.3,4.53-4.07,6.27c-1.77,1.74-3.92,3.09-6.43,4.05-2.51.96-5.34,1.44-8.48,1.44h-13.42v-39.7ZM267.36,107.7c2.18,0,4.1-.31,5.77-.92,1.66-.61,3.05-1.47,4.16-2.58,1.11-1.11,1.94-2.45,2.5-4.02.55-1.57.83-3.32.83-5.24s-.28-3.67-.83-5.24c-.55-1.57-1.39-2.91-2.5-4.02-1.11-1.11-2.49-1.97-4.16-2.58-1.66-.61-3.59-.92-5.77-.92h-5.6v25.51h5.6Z"/>
    <path class="cls-2" d="M318.16,108.25c-1.26,2.22-2.95,4.01-5.07,5.38-2.13,1.37-4.72,2.05-7.79,2.05-2.07,0-3.98-.36-5.74-1.08-1.76-.72-3.28-1.73-4.58-3.02-1.29-1.3-2.3-2.82-3.02-4.58s-1.08-3.69-1.08-5.79c0-1.96.35-3.82,1.05-5.57.7-1.76,1.68-3.29,2.94-4.6,1.26-1.31,2.74-2.36,4.46-3.13,1.72-.78,3.61-1.16,5.69-1.16,2.18,0,4.12.36,5.82,1.08,1.7.72,3.12,1.72,4.27,2.99,1.15,1.28,2.01,2.78,2.61,4.52.59,1.74.89,3.62.89,5.66v.67c-.04.22-.05.43-.05.61-.04.19-.06.39-.06.61h-20.46c.15,1.11.45,2.06.91,2.86.46.79,1.03,1.46,1.72,2,.68.54,1.43.92,2.24,1.16.81.24,1.65.36,2.5.36,1.66,0,3.04-.38,4.13-1.14s1.95-1.71,2.58-2.85l6.05,2.99ZM311.56,97.71c-.04-.48-.19-1.02-.47-1.61-.27-.59-.68-1.14-1.22-1.66s-1.2-.94-2-1.28-1.75-.5-2.85-.5c-1.55,0-2.92.44-4.1,1.33-1.18.89-2.01,2.12-2.49,3.71h13.14Z"/>
    <path class="cls-2" d="M319.82,87.62h8.26l6.77,17.3h.39l6.82-17.3h8.21l-11.7,27.17h-7.15l-11.59-27.17Z"/>
    <path class="cls-2" d="M354.47,75.09h25.18v7.1h-17.69v9.65h15.91v7.1h-15.91v15.86h-7.49v-39.7Z"/>
    <path class="cls-2" d="M408.6,108.25c-1.26,2.22-2.95,4.01-5.07,5.38-2.13,1.37-4.72,2.05-7.79,2.05-2.07,0-3.98-.36-5.74-1.08s-3.28-1.73-4.58-3.02c-1.29-1.3-2.3-2.82-3.02-4.58-.72-1.76-1.08-3.69-1.08-5.79,0-1.96.35-3.82,1.05-5.57.7-1.76,1.68-3.29,2.94-4.6,1.26-1.31,2.74-2.36,4.46-3.13,1.72-.78,3.61-1.16,5.69-1.16,2.18,0,4.12.36,5.82,1.08,1.7.72,3.12,1.72,4.27,2.99,1.15,1.28,2.01,2.78,2.61,4.52.59,1.74.89,3.62.89,5.66v.67c-.04.22-.05.43-.05.61-.04.19-.06.39-.06.61h-20.46c.15,1.11.45,2.06.91,2.86.46.79,1.03,1.46,1.72,2,.68.54,1.43.92,2.24,1.16.81.24,1.65.36,2.5.36,1.66,0,3.04-.38,4.13-1.14s1.95-1.71,2.58-2.85l6.05,2.99ZM402,97.71c-.04-.48-.19-1.02-.47-1.61-.27-.59-.68-1.14-1.22-1.66s-1.2-.94-2-1.28-1.75-.5-2.85-.5c-1.55,0-2.92.44-4.1,1.33-1.18.89-2.01,2.12-2.49,3.71h13.14Z"/>
    <path class="cls-2" d="M424.73,115.68c-1.77,0-3.35-.22-4.74-.67-1.39-.44-2.59-1.03-3.6-1.75-1.02-.72-1.88-1.55-2.58-2.5-.7-.94-1.24-1.89-1.61-2.85l6.49-2.77c.63,1.41,1.47,2.45,2.52,3.13s2.23,1.03,3.52,1.03,2.39-.24,3.16-.72c.78-.48,1.16-1.05,1.16-1.72,0-.74-.32-1.34-.97-1.8-.65-.46-1.77-.88-3.36-1.25l-3.82-.83c-.85-.18-1.73-.48-2.63-.89-.91-.41-1.73-.92-2.47-1.55-.74-.63-1.35-1.38-1.83-2.27-.48-.89-.72-1.92-.72-3.11,0-1.33.29-2.51.86-3.55.57-1.04,1.36-1.91,2.36-2.64,1-.72,2.17-1.27,3.52-1.66s2.8-.58,4.35-.58c2.59,0,4.9.51,6.93,1.52s3.53,2.63,4.49,4.85l-6.27,2.55c-.52-1.07-1.27-1.85-2.27-2.33s-2-.72-2.99-.72-1.94.21-2.72.64-1.16.97-1.16,1.63c0,.63.32,1.13.97,1.5.65.37,1.52.7,2.63,1l4.16,1c2.77.67,4.83,1.73,6.18,3.19,1.35,1.46,2.03,3.19,2.03,5.18,0,1.18-.28,2.31-.83,3.38-.55,1.07-1.34,2.03-2.36,2.86-1.02.83-2.24,1.49-3.66,1.97-1.42.48-3.01.72-4.74.72Z"/>
    <path class="cls-2" d="M443.48,93.83h-4.77v-6.21h4.77v-8.32h7.26v8.32h6.65v6.21h-6.65v10.86c0,.65.06,1.25.19,1.8.13.55.38,1.02.75,1.4.52.61,1.26.91,2.22.91.63,0,1.13-.06,1.5-.19.37-.13.72-.3,1.05-.53l2.05,6.37c-.85.41-1.77.71-2.75.92-.98.2-2.06.3-3.24.3-1.37,0-2.6-.22-3.69-.65-1.09-.43-2.01-1.03-2.74-1.78-1.74-1.7-2.61-4.11-2.61-7.24v-12.17Z"/>
  </g>
  <path class="cls-2" d="M187.51,76.38c-1.45,0-2.92.44-4.19,1.35l-13.33,9.58c2.01-.3,4.14.14,5.92,1.42l8.37,6.01,7.43-5.34c3.22-2.31,3.96-6.81,1.64-10.03-1.4-1.95-3.61-2.99-5.85-2.99Z"/>
  <path class="cls-2" d="M222.25,101.87l-8.37-6.01-7.43,5.34c-3.22,2.31-3.95,6.81-1.64,10.03,2.31,3.22,6.81,3.96,10.03,1.64l13.32-9.57c-.4.06-.8.1-1.2.1-1.68,0-3.32-.52-4.71-1.52Z"/>
  <g>
    <path class="cls-2" d="M94.4,203.42v-38.19h-12.99v-8.31h34.74v8.31h-12.99v38.19h-8.77Z"/>
    <path class="cls-2" d="M157.39,193.43c-3.46,0-6.68-.63-9.64-1.88-2.97-1.26-5.53-2.98-7.7-5.17-2.17-2.18-3.86-4.76-5.1-7.73-1.23-2.97-1.85-6.14-1.85-9.51s.62-6.55,1.85-9.51c1.24-2.96,2.93-5.54,5.1-7.73s4.73-3.91,7.7-5.16c2.97-1.26,6.18-1.88,9.64-1.88s6.68.63,9.64,1.88c2.97,1.26,5.53,2.98,7.69,5.16,2.17,2.19,3.86,4.76,5.1,7.73,1.23,2.97,1.85,6.14,1.85,9.51s-.62,6.55-1.85,9.51c-1.23,2.97-2.93,5.54-5.1,7.73-2.17,2.19-4.73,3.91-7.69,5.17-2.97,1.26-6.18,1.88-9.64,1.88ZM157.39,185.12c2.17,0,4.19-.39,6.07-1.17,1.88-.78,3.53-1.86,4.93-3.25,1.41-1.38,2.51-3.06,3.31-5.03.8-1.97,1.2-4.15,1.2-6.53s-.4-4.56-1.2-6.53c-.8-1.97-1.91-3.65-3.31-5.03-1.41-1.38-3.05-2.47-4.93-3.25-1.89-.78-3.91-1.17-6.07-1.17s-4.19.39-6.07,1.17c-1.88.78-3.53,1.86-4.93,3.25-1.41,1.39-2.51,3.06-3.31,5.03-.8,1.97-1.2,4.14-1.2,6.53s.4,4.56,1.2,6.53c.8,1.97,1.9,3.65,3.31,5.03,1.41,1.39,3.05,2.47,4.93,3.25,1.89.78,3.91,1.17,6.07,1.17Z"/>
    <path class="cls-2" d="M218.76,209.98c-2.73,0-5.21-.44-7.44-1.33-2.23-.89-4.12-2.17-5.68-3.86s-2.77-3.74-3.64-6.14c-.87-2.4-1.3-5.14-1.3-8.22v-27.99h8.77v28.51c0,1.56.19,2.99.58,4.29.39,1.3.97,2.42,1.75,3.38.78.95,1.75,1.7,2.92,2.24s2.51.81,4.03.81,2.92-.27,4.09-.81c1.17-.54,2.14-1.29,2.92-2.24.78-.95,1.37-2.08,1.75-3.38.39-1.3.59-2.73.59-4.29v-28.51h8.77v27.99c0,2.9-.42,5.55-1.27,7.96-.85,2.4-2.06,4.46-3.64,6.17-1.58,1.71-3.48,3.04-5.71,3.99-2.23.95-4.73,1.43-7.5,1.43Z"/>
    <path class="cls-2" d="M258.18,148.65h8.77v38.19h19.68v8.31h-28.44v-46.5Z"/>
    <path class="cls-2" d="M326.89,196.19c-3.46,0-6.68-.63-9.64-1.88-2.97-1.26-5.53-2.98-7.7-5.17-2.17-2.18-3.86-4.76-5.1-7.73-1.23-2.97-1.85-6.14-1.85-9.51s.62-6.55,1.85-9.51c1.24-2.96,2.93-5.54,5.1-7.73s4.73-3.91,7.7-5.16c2.97-1.26,6.18-1.88,9.64-1.88s6.68.63,9.64,1.88c2.97,1.26,5.53,2.98,7.69,5.16,2.17,2.19,3.86,4.76,5.1,7.73,1.23,2.97,1.85,6.14,1.85,9.51s-.62,6.55-1.85,9.51c-1.23,2.97-2.93,5.54-5.1,7.73-2.17,2.19-4.73,3.91-7.69,5.17-2.97,1.26-6.18,1.88-9.64,1.88ZM326.89,187.88c2.17,0,4.19-.39,6.07-1.17,1.88-.78,3.53-1.86,4.93-3.25,1.41-1.38,2.51-3.06,3.31-5.03.8-1.97,1.2-4.15,1.2-6.53s-.4-4.56-1.2-6.53c-.8-1.97-1.91-3.65-3.31-5.03-1.41-1.38-3.05-2.47-4.93-3.25-1.89-.78-3.91-1.17-6.07-1.17s-4.19.39-6.07,1.17c-1.88.78-3.53,1.86-4.93,3.25-1.41,1.39-2.51,3.06-3.31,5.03-.8,1.97-1.2,4.14-1.2,6.53s.4,4.56,1.2,6.53c.8,1.97,1.9,3.65,3.31,5.03,1.41,1.39,3.05,2.47,4.93,3.25,1.89.78,3.91,1.17,6.07,1.17Z"/>
    <path class="cls-2" d="M388.26,209.98c-2.73,0-5.21-.44-7.44-1.33-2.23-.89-4.12-2.17-5.68-3.86s-2.77-3.74-3.64-6.14c-.87-2.4-1.3-5.14-1.3-8.22v-27.99h8.77v28.51c0,1.56.19,2.99.58,4.29.39,1.3.97,2.42,1.75,3.38.78.95,1.75,1.7,2.92,2.24,1.17.54,2.51.81,4.03.81s2.92-.27,4.09-.81,2.14-1.29,2.92-2.24c.78-.95,1.37-2.08,1.75-3.38.39-1.3.59-2.73.59-4.29v-28.51h8.77v27.99c0,2.9-.42,5.55-1.27,7.96-.85,2.4-2.06,4.46-3.64,6.17-1.58,1.71-3.48,3.04-5.71,3.99-2.23.95-4.73,1.43-7.5,1.43Z"/>
    <path class="cls-2" d="M441.91,196.19c-1.99,0-3.9-.28-5.71-.85-1.82-.56-3.48-1.41-5-2.53s-2.84-2.5-3.96-4.12-2.01-3.52-2.66-5.68l8.25-3.25c.61,2.34,1.67,4.28,3.18,5.81,1.51,1.54,3.51,2.31,5.97,2.31.91,0,1.79-.12,2.63-.36.84-.24,1.6-.58,2.27-1.04.67-.46,1.2-1.03,1.59-1.72.39-.69.58-1.49.58-2.4s-.15-1.65-.46-2.34c-.3-.69-.81-1.34-1.53-1.95-.71-.61-1.65-1.19-2.79-1.75s-2.56-1.15-4.25-1.75l-2.86-1.04c-1.26-.43-2.52-1.02-3.8-1.75-1.28-.74-2.43-1.62-3.47-2.66-1.04-1.04-1.89-2.26-2.56-3.67-.67-1.41-1.01-3-1.01-4.77s.36-3.51,1.07-5.1c.71-1.58,1.73-2.96,3.05-4.16,1.32-1.19,2.9-2.12,4.74-2.79,1.84-.67,3.89-1,6.14-1s4.36.31,6.07.94c1.71.63,3.16,1.43,4.35,2.4,1.19.97,2.15,2.05,2.89,3.22.74,1.17,1.28,2.27,1.62,3.31l-7.73,3.25c-.43-1.3-1.23-2.47-2.37-3.51-1.15-1.04-2.72-1.56-4.71-1.56s-3.48.44-4.74,1.33c-1.26.89-1.88,2.05-1.88,3.47s.61,2.57,1.82,3.54c1.21.97,3.14,1.92,5.78,2.83l2.92.97c1.86.65,3.56,1.4,5.1,2.24,1.54.84,2.86,1.85,3.96,3.02,1.1,1.17,1.95,2.5,2.53,3.99.58,1.49.88,3.22.88,5.16,0,2.43-.49,4.51-1.46,6.27-.97,1.75-2.22,3.19-3.74,4.32-1.52,1.13-3.23,1.97-5.13,2.53-1.91.56-3.77.85-5.59.85Z"/>
    <path class="cls-2" d="M486.78,165.24v10.78h18.64v8.31h-18.64v10.78h20.72v8.31h-29.48v-46.5h29.48v8.31h-20.72Z"/>
  </g>
  <path class="cls-2" d="M191.71,101.2l-7.43-5.34-.39-.28-.39-.28-8.12-5.84c-1.27-.91-2.73-1.35-4.19-1.35-1.6,0-3.17.55-4.46,1.57-.15.12-.29.25-.43.38-.27.25-.52.52-.75.82-.06.08-.15.14-.21.23-.05.07-.08.15-.13.22-.14.22-.27.44-.38.67-.1.2-.21.4-.29.61-.09.21-.15.43-.21.64-.07.23-.14.46-.18.7-.04.22-.06.44-.08.65-.02.23-.05.47-.05.7s.02.47.05.7c.02.22.04.44.08.65.05.24.12.47.18.7.06.22.13.43.21.64.08.21.19.41.29.61.12.23.24.45.38.67.12.18.26.36.4.53.15.19.31.38.48.55.18.18.37.34.57.5.11.09.2.2.32.28l2.03,1.46.98.7,13.32,9.57c1.27.91,2.73,1.35,4.19,1.35,2.24,0,4.44-1.04,5.85-2.99,2.31-3.22,1.58-7.72-1.64-10.03Z"/>
  <path class="cls-2" d="M234.09,94.52c-.02-.19-.04-.38-.08-.57-.05-.26-.13-.52-.2-.77-.06-.19-.12-.39-.2-.57-.09-.22-.2-.44-.31-.65-.11-.21-.23-.42-.36-.62-.12-.19-.26-.36-.4-.54-.15-.19-.31-.38-.48-.55-.18-.18-.37-.34-.57-.5-.11-.09-.2-.2-.32-.28l-2.03-1.46-.98-.7-13.32-9.57c-3.22-2.31-7.72-1.58-10.03,1.64-2.31,3.22-1.58,7.72,1.64,10.03l7.43,5.34.39.28.39.28,8.12,5.84c1.56,1.12,3.46,1.57,5.36,1.26,1.26-.21,2.4-.76,3.37-1.55.18-.15.36-.3.53-.47.18-.18.35-.39.52-.59.08-.1.18-.19.26-.29.04-.06.06-.12.1-.17.16-.24.3-.49.43-.74.09-.17.18-.35.26-.53.1-.23.17-.47.24-.71.06-.22.13-.43.17-.65.05-.24.07-.48.09-.72.02-.22.04-.44.04-.66,0-.26-.02-.53-.05-.79Z"/>
</svg>